<mxfile host="Electron" modified="2024-10-26T02:08:05.930Z" agent="Mozilla/5.0 (Windows NT 10.0; Win64; x64) AppleWebKit/537.36 (KHTML, like Gecko) draw.io/21.4.0 Chrome/112.0.5615.204 Electron/24.5.1 Safari/537.36" etag="rHdnreqXA3raKA5QVelk" version="21.4.0" type="device">
  <diagram name="Page-1" id="2YBvvXClWsGukQMizWep">
    <mxGraphModel dx="780" dy="496" grid="1" gridSize="10" guides="1" tooltips="1" connect="1" arrows="1" fold="1" page="1" pageScale="1" pageWidth="850" pageHeight="1100" math="0" shadow="0">
      <root>
        <mxCell id="0" />
        <mxCell id="1" parent="0" />
        <mxCell id="yI2zFLjwvcNR_4P85Sz4-3" value="" style="edgeStyle=orthogonalEdgeStyle;rounded=0;orthogonalLoop=1;jettySize=auto;html=1;" edge="1" parent="1" source="yI2zFLjwvcNR_4P85Sz4-1" target="yI2zFLjwvcNR_4P85Sz4-2">
          <mxGeometry relative="1" as="geometry" />
        </mxCell>
        <mxCell id="yI2zFLjwvcNR_4P85Sz4-1" value="&lt;b&gt;User Input&lt;br&gt;Streamlit UI&lt;/b&gt;" style="rounded=1;whiteSpace=wrap;html=1;fillColor=#e51400;strokeColor=#B20000;fontColor=#ffffff;gradientColor=none;" vertex="1" parent="1">
          <mxGeometry x="290" y="70" width="120" height="60" as="geometry" />
        </mxCell>
        <mxCell id="yI2zFLjwvcNR_4P85Sz4-7" value="" style="edgeStyle=orthogonalEdgeStyle;rounded=0;orthogonalLoop=1;jettySize=auto;html=1;" edge="1" parent="1" source="yI2zFLjwvcNR_4P85Sz4-2" target="yI2zFLjwvcNR_4P85Sz4-6">
          <mxGeometry relative="1" as="geometry" />
        </mxCell>
        <mxCell id="yI2zFLjwvcNR_4P85Sz4-2" value="Input Validation" style="rounded=1;whiteSpace=wrap;html=1;fillColor=#008a00;strokeColor=#005700;fontColor=#ffffff;fontStyle=1" vertex="1" parent="1">
          <mxGeometry x="290" y="190" width="120" height="60" as="geometry" />
        </mxCell>
        <mxCell id="yI2zFLjwvcNR_4P85Sz4-5" value="&lt;h1 style=&quot;font-size: 14px;&quot;&gt;&lt;ol style=&quot;font-size: 14px;&quot;&gt;&lt;li style=&quot;font-size: 14px;&quot;&gt;&lt;span style=&quot;font-weight: normal; font-size: 14px;&quot;&gt;Validates age, income, health status, and family history.&lt;/span&gt;&lt;/li&gt;&lt;li style=&quot;font-size: 14px;&quot;&gt;&lt;span style=&quot;font-weight: normal; font-size: 14px;&quot;&gt;Shows errors if inputs are invalid.&lt;/span&gt;&lt;/li&gt;&lt;/ol&gt;&lt;/h1&gt;" style="text;html=1;strokeColor=none;fillColor=none;spacing=5;spacingTop=-20;whiteSpace=wrap;overflow=hidden;rounded=0;fontSize=14;verticalAlign=bottom;labelBackgroundColor=default;" vertex="1" parent="1">
          <mxGeometry x="420" y="190" width="405" height="60" as="geometry" />
        </mxCell>
        <mxCell id="yI2zFLjwvcNR_4P85Sz4-10" value="" style="edgeStyle=orthogonalEdgeStyle;rounded=0;orthogonalLoop=1;jettySize=auto;html=1;" edge="1" parent="1" source="yI2zFLjwvcNR_4P85Sz4-6" target="yI2zFLjwvcNR_4P85Sz4-9">
          <mxGeometry relative="1" as="geometry" />
        </mxCell>
        <mxCell id="yI2zFLjwvcNR_4P85Sz4-6" value="Recommendation Engine" style="rounded=1;whiteSpace=wrap;html=1;fillColor=#1ba1e2;strokeColor=#006EAF;fontColor=#ffffff;fontStyle=1" vertex="1" parent="1">
          <mxGeometry x="290" y="310" width="120" height="60" as="geometry" />
        </mxCell>
        <mxCell id="yI2zFLjwvcNR_4P85Sz4-8" value="&lt;h1 style=&quot;font-size: 13px;&quot;&gt;&lt;ol style=&quot;font-size: 13px;&quot;&gt;&lt;li style=&quot;font-size: 13px;&quot;&gt;&lt;span style=&quot;font-weight: normal; font-size: 13px;&quot;&gt;Sends validated data to the AI model via API.&lt;/span&gt;&amp;nbsp;&lt;/li&gt;&lt;li style=&quot;font-size: 13px;&quot;&gt;&lt;span style=&quot;font-weight: normal; font-size: 13px;&quot;&gt;AI model generates personalized insurance recommendations.&lt;/span&gt;&lt;br style=&quot;font-size: 13px;&quot;&gt;&lt;/li&gt;&lt;/ol&gt;&lt;/h1&gt;" style="text;html=1;strokeColor=none;fillColor=none;spacing=5;spacingTop=-20;whiteSpace=wrap;overflow=hidden;rounded=0;fontSize=13;fontStyle=0;align=left;verticalAlign=bottom;" vertex="1" parent="1">
          <mxGeometry x="410" y="310" width="430" height="60" as="geometry" />
        </mxCell>
        <mxCell id="yI2zFLjwvcNR_4P85Sz4-13" value="" style="edgeStyle=orthogonalEdgeStyle;rounded=0;orthogonalLoop=1;jettySize=auto;html=1;" edge="1" parent="1" source="yI2zFLjwvcNR_4P85Sz4-9" target="yI2zFLjwvcNR_4P85Sz4-12">
          <mxGeometry relative="1" as="geometry" />
        </mxCell>
        <mxCell id="yI2zFLjwvcNR_4P85Sz4-9" value="Display Recommendations" style="rounded=1;whiteSpace=wrap;html=1;fillColor=#d80073;strokeColor=#A50040;fontColor=#ffffff;fontStyle=1" vertex="1" parent="1">
          <mxGeometry x="290" y="420" width="120" height="60" as="geometry" />
        </mxCell>
        <mxCell id="yI2zFLjwvcNR_4P85Sz4-11" value="&lt;h1 style=&quot;font-size: 14px;&quot;&gt;&lt;div style=&quot;font-size: 14px;&quot;&gt;&lt;span style=&quot;font-weight: normal; font-size: 14px;&quot;&gt;&lt;font style=&quot;font-size: 14px;&quot;&gt;Shows the recommendations to the user in the UI.&lt;/font&gt;&lt;/span&gt;&lt;span style=&quot;font-size: 14px; font-weight: 400;&quot;&gt;&lt;br style=&quot;font-size: 14px;&quot;&gt;&lt;/span&gt;&lt;/div&gt;&lt;/h1&gt;" style="text;html=1;strokeColor=none;fillColor=none;spacing=5;spacingTop=-20;whiteSpace=wrap;overflow=hidden;rounded=0;fontSize=14;verticalAlign=middle;" vertex="1" parent="1">
          <mxGeometry x="435" y="440" width="405" height="50" as="geometry" />
        </mxCell>
        <mxCell id="yI2zFLjwvcNR_4P85Sz4-12" value="Save Options" style="rounded=1;whiteSpace=wrap;html=1;fillColor=#6d8764;strokeColor=#3A5431;fontColor=#ffffff;fontStyle=1" vertex="1" parent="1">
          <mxGeometry x="290" y="540" width="120" height="60" as="geometry" />
        </mxCell>
        <mxCell id="yI2zFLjwvcNR_4P85Sz4-14" value="&lt;h1 style=&quot;font-size: 14px;&quot;&gt;&lt;div style=&quot;font-size: 14px;&quot;&gt;&lt;span style=&quot;font-weight: normal;&quot;&gt;Allows users to download recommendations as &lt;span class=&quot;hljs-selector-tag&quot;&gt;a&lt;/span&gt; text or PDF file.&lt;/span&gt;&lt;span style=&quot;font-size: 14px; font-weight: 400;&quot;&gt;&lt;br style=&quot;font-size: 14px;&quot;&gt;&lt;/span&gt;&lt;/div&gt;&lt;/h1&gt;" style="text;html=1;strokeColor=none;fillColor=none;spacing=5;spacingTop=-20;whiteSpace=wrap;overflow=hidden;rounded=0;fontSize=14;verticalAlign=middle;" vertex="1" parent="1">
          <mxGeometry x="435" y="550" width="405" height="50" as="geometry" />
        </mxCell>
        <mxCell id="yI2zFLjwvcNR_4P85Sz4-15" value="&lt;h1&gt;Explanation&lt;/h1&gt;&lt;ol style=&quot;font-size: 17px;&quot;&gt;&lt;li&gt;&lt;sup&gt;&lt;strong style=&quot;font-size: 17px;&quot;&gt;User Input&lt;/strong&gt;: Users provide details such as age, annual income, health status, and family health history.&lt;/sup&gt;&lt;/li&gt;&lt;li&gt;&lt;sup&gt;&lt;strong style=&quot;font-size: 17px;&quot;&gt;Input Validation&lt;/strong&gt;: The system checks if inputs are within valid ranges and formats.&lt;/sup&gt;&lt;/li&gt;&lt;li&gt;&lt;sup&gt;&lt;strong style=&quot;font-size: 17px;&quot;&gt;Recommendation Engine&lt;/strong&gt;: Processes validated data through an AI model to create tailored recommendations.&lt;/sup&gt;&lt;/li&gt;&lt;li&gt;&lt;sup&gt;&lt;strong style=&quot;font-size: 17px;&quot;&gt;Display Recommendations&lt;/strong&gt;: Shows generated recommendations directly in the app interface.&lt;/sup&gt;&lt;/li&gt;&lt;li&gt;&lt;sup&gt;&lt;strong style=&quot;font-size: 17px;&quot;&gt;Save Options&lt;/strong&gt;: Users can save their recommendations as a downloadable file in text or PDF format.&lt;/sup&gt;&lt;/li&gt;&lt;/ol&gt;" style="text;html=1;strokeColor=none;fillColor=none;spacing=5;spacingTop=-20;whiteSpace=wrap;overflow=hidden;rounded=0;" vertex="1" parent="1">
          <mxGeometry x="200" y="660" width="640" height="220" as="geometry" />
        </mxCell>
        <mxCell id="yI2zFLjwvcNR_4P85Sz4-16" value="&lt;div style=&quot;font-size: 20px;&quot;&gt;Personalized Policy Recommendation System&lt;/div&gt;&lt;div style=&quot;font-size: 20px;&quot;&gt;&lt;br style=&quot;font-size: 20px;&quot;&gt;&lt;/div&gt;" style="text;html=1;strokeColor=none;fillColor=none;align=center;verticalAlign=middle;whiteSpace=wrap;rounded=0;fontStyle=1;fontSize=20;" vertex="1" parent="1">
          <mxGeometry x="190" y="20" width="470" height="30" as="geometry" />
        </mxCell>
      </root>
    </mxGraphModel>
  </diagram>
</mxfile>
